<svg width="1920" height="2562" viewBox="0 0 1920 2562" fill="none" xmlns="http://www.w3.org/2000/svg">
<rect x="-16" width="1952" height="2562" fill="url(#paint0_linear)"/>
<rect y="734" width="1920" height="1440" fill="url(#paint1_linear)"/>
<g style="mix-blend-mode:multiply">
<rect width="1920" height="734" fill="url(#paint2_linear)"/>
</g>
<g style="mix-blend-mode:multiply">
<rect width="1920" height="765" fill="url(#paint3_linear)"/>
</g>
<path fill-rule="evenodd" clip-rule="evenodd" d="M-91 1635.42V418C-48.2999 442.048 1.58712 477.382 55.4305 515.519C124.285 564.288 199.609 617.639 274.647 657.831C464.922 759.956 619.934 709.819 855.684 633.567C904.485 617.783 956.746 600.879 1013.5 583.976C1099.69 558.303 1196.83 524.377 1298.34 488.925C1586.54 388.278 1909.95 275.331 2118 304C2291.21 327.914 2355.41 441.649 2411.18 540.452C2463.9 633.851 2509.09 713.906 2631.71 692.13C2701.21 679.777 2759.99 654.282 2810 622.086V1655L2448 1652.51V937.236C2410.86 961.28 2367.48 996.608 2320.65 1034.74C2260.77 1083.5 2195.26 1136.84 2130 1177.02C1964.51 1279.13 1829.7 1229 1624.67 1152.76C1582.23 1136.98 1536.78 1120.08 1487.42 1103.18C1199.64 1004.64 1027.76 964.565 783.083 1003.33C654.118 1023.79 545.006 1075.21 444.545 1122.55C316.736 1182.77 202.929 1236.4 80.0594 1211.31C19.6125 1198.96 -31.5045 1173.47 -75 1141.28V1635.53L-91 1635.42Z" fill="url(#paint4_linear)"/>
<path d="M2432 1827.92V2558.5H-91V1957.87C45.6625 2005.07 189.29 1959.98 311.103 1903.56C391.655 1866.24 462.483 1824.04 515.44 1800.27C770.105 1685.76 912.418 1664.88 1114.13 1724.41C1213.21 1753.62 1326.74 1802.27 1474.97 1868.8C1487.32 1874.35 1499.94 1880.01 1512.81 1885.79C1791.26 2011.18 2213.6 1904.56 2432 1827.92Z" fill="url(#paint5_linear)"/>
<defs>
<linearGradient id="paint0_linear" x1="1048" y1="-722.819" x2="2408.47" y2="2128.06" gradientUnits="userSpaceOnUse">
<stop stop-color="#45D3FE" stop-opacity="0.49"/>
<stop offset="0.0001" stop-color="#45D3FE" stop-opacity="0.67"/>
<stop offset="1" stop-color="#2674CC"/>
</linearGradient>
<linearGradient id="paint1_linear" x1="1346" y1="598.5" x2="1200.5" y2="1669.5" gradientUnits="userSpaceOnUse">
<stop stop-color="#0446B9"/>
<stop offset="1" stop-color="#66C2FF"/>
</linearGradient>
<linearGradient id="paint2_linear" x1="1088.5" y1="-729.469" x2="2095.18" y2="-464.848" gradientUnits="userSpaceOnUse">
<stop stop-color="#45D3FE"/>
<stop offset="1" stop-color="#2674CC"/>
</linearGradient>
<linearGradient id="paint3_linear" x1="1088.5" y1="-760.278" x2="2708.57" y2="454.236" gradientUnits="userSpaceOnUse">
<stop stop-color="#45D3FE"/>
<stop offset="1" stop-color="#2674CC"/>
</linearGradient>
<linearGradient id="paint4_linear" x1="1358.93" y1="606.101" x2="1425.82" y2="1622.01" gradientUnits="userSpaceOnUse">
<stop stop-color="#20AEF6"/>
<stop offset="1" stop-color="#0F59C0"/>
</linearGradient>
<linearGradient id="paint5_linear" x1="340" y1="2174" x2="1859" y2="2174" gradientUnits="userSpaceOnUse">
<stop stop-color="#449BDE"/>
<stop offset="1" stop-color="#2877CD"/>
</linearGradient>
</defs>
</svg>
