<svg width="174" height="160" viewBox="0 0 174 160" fill="none" xmlns="http://www.w3.org/2000/svg">
<path d="M83.8523 154.229C83.1528 153.443 78.8683 146.448 74.2342 138.667C65.0533 123.191 65.5779 123.628 58.3206 126.426C53.5116 128.262 51.1508 127.475 51.1508 124.066C51.1508 122.317 52.2 121.443 56.5719 119.344L62.0804 116.721V106.055C62.0804 97.5738 62.3427 95.1257 63.4794 94.0765C65.0533 92.5027 66.2774 92.3279 68.201 93.5519C69.1628 94.1639 69.6 96.6994 69.9498 103.869L70.3869 113.311L86.8251 106.404L103.176 99.4098V89.8798C103.176 79.4754 103.963 76.9399 106.936 76.9399C110.433 76.9399 111.045 78.5137 111.045 87.6065V96.0874L114.805 94.4262C119.264 92.3279 121.013 92.2404 122.412 93.9891C124.598 96.6994 122.762 99.235 116.729 101.858L111.045 104.219V111.388V118.47L99.9407 137.093C90.9347 152.131 88.4864 155.628 86.9126 155.628C85.8633 155.628 84.4643 155.016 83.8523 154.229ZM89.1859 140.59C90.3226 138.492 93.995 132.284 97.2302 126.776C102.914 117.421 103.263 116.546 103.001 112.262L102.739 107.628L87.8744 114.098C77.994 118.295 73.0975 120.831 73.2724 121.617C73.6221 123.279 86.0382 144.262 86.6503 144.262C86.9126 144.262 88.0493 142.601 89.1859 140.59Z" fill="url(#paint0_linear)"/>
<path d="M52.2 91.9781C49.4894 89.0054 50.3638 87.4317 56.397 84.7213L62.0804 82.1858V71.4317C62.0804 60.0655 62.5176 58.5792 66.1899 58.5792C69.1628 58.5792 69.9497 61.1147 69.9497 70.3825C69.9497 78.0765 70.1246 78.8633 71.5236 78.3388C72.3105 77.989 79.7427 74.9289 88.0492 71.4317L103.088 65.1366L103.176 55.7814C103.176 47.3879 103.351 46.1639 105.012 44.5027C106.586 42.9289 107.023 42.8415 108.684 43.9781C110.433 45.1147 110.608 46.1639 110.87 53.3333C111.045 59.1912 111.395 61.2896 112.182 60.9398C118.915 58.4043 119.964 58.2295 121.363 59.1038C123.286 60.3278 123.724 63.2131 122.15 64.5245C120.926 65.5737 55.4352 93.5519 54.211 93.5519C53.8613 93.5519 52.9869 92.8524 52.2 91.9781Z" fill="url(#paint1_linear)"/>
<path d="M51.5887 57.2677C49.6651 54.9071 51.064 52.9836 56.66 50.3606L62.0811 47.7377V27.541C62.0811 13.0273 62.3434 7.08194 63.1304 6.29505C64.6168 4.80871 108.51 4.80871 109.997 6.29505C110.696 6.99451 111.046 10.6666 111.046 17.224V27.1038L114.369 25.7049C119.527 23.4317 120.314 23.3442 121.888 24.918C124.686 27.7158 123.637 29.6393 117.866 32.3497C103.964 38.6448 55.8731 58.5792 54.3867 58.5792C53.4249 58.5792 52.2007 57.9672 51.5887 57.2677ZM94.4329 34.1858L102.739 30.6885L103.002 21.5082L103.264 12.2404H86.5635H69.9505V28.4153V44.5027L78.0821 41.0929C82.454 39.2568 89.8862 36.1093 94.4329 34.1858Z" fill="url(#paint2_linear)"/>
<defs>
<linearGradient id="paint0_linear" x1="87.2252" y1="76.9399" x2="87.2252" y2="155.628" gradientUnits="userSpaceOnUse">
<stop stop-color="#45D3FE"/>
<stop offset="1" stop-color="#2674CC"/>
</linearGradient>
<linearGradient id="paint1_linear" x1="86.9232" y1="43.211" x2="86.9232" y2="93.5519" gradientUnits="userSpaceOnUse">
<stop stop-color="#45D3FE"/>
<stop offset="1" stop-color="#2674CC"/>
</linearGradient>
<linearGradient id="paint2_linear" x1="87.0741" y1="5.1803" x2="87.0741" y2="58.5792" gradientUnits="userSpaceOnUse">
<stop stop-color="#45D3FE"/>
<stop offset="1" stop-color="#2674CC"/>
</linearGradient>
</defs>
</svg>
